<?xml version="1.0" encoding="UTF-8" standalone="no"?>
<!-- Created with Inkscape (http://www.inkscape.org/) -->

<svg
   width="115.04853mm"
   height="48.401245mm"
   viewBox="0 0 115.04853 48.401245"
   version="1.1"
   id="svg5"
   inkscape:version="1.1.1 (3bf5ae0, 2021-09-20)"
   sodipodi:docname="iCapivara-logo.svg"
   xmlns:inkscape="http://www.inkscape.org/namespaces/inkscape"
   xmlns:sodipodi="http://sodipodi.sourceforge.net/DTD/sodipodi-0.dtd"
   xmlns="http://www.w3.org/2000/svg"
   xmlns:svg="http://www.w3.org/2000/svg">
  <sodipodi:namedview
     id="namedview7"
     pagecolor="#ffffff"
     bordercolor="#666666"
     borderopacity="1.0"
     inkscape:pageshadow="2"
     inkscape:pageopacity="0.0"
     inkscape:pagecheckerboard="0"
     inkscape:document-units="mm"
     showgrid="false"
     inkscape:zoom="4"
     inkscape:cx="160"
     inkscape:cy="91.75"
     inkscape:window-width="1920"
     inkscape:window-height="1056"
     inkscape:window-x="1366"
     inkscape:window-y="24"
     inkscape:window-maximized="1"
     inkscape:current-layer="layer1"
     fit-margin-top="0"
     fit-margin-left="0"
     fit-margin-right="0"
     fit-margin-bottom="0" />
  <defs
     id="defs2">
    <clipPath
       clipPathUnits="userSpaceOnUse"
       id="clipPath11259">
      <path
         style="fill:#eaedf2;fill-opacity:1;stroke:none;stroke-width:0.264583px;stroke-linecap:butt;stroke-linejoin:miter;stroke-opacity:1"
         d="m 50.40289,37.344421 c 0.664395,-1.657688 0.863734,-2.391084 1.54642,-2.198777 1.613414,0.48532 1.572488,4.504783 -0.19391,4.374118 -1.101511,-0.811781 -1.524897,-1.745234 -1.35251,-2.175341 z"
         id="path11261"
         sodipodi:nodetypes="sccs" />
    </clipPath>
    <clipPath
       clipPathUnits="userSpaceOnUse"
       id="clipPath11725">
      <path
         style="fill:none;stroke:#eaedf2;stroke-width:0.264583px;stroke-linecap:butt;stroke-linejoin:miter;stroke-opacity:1"
         d="m 49.921636,36.052281 c -6.952747,0.738841 -12.400814,3.701132 -13.650923,5.837523 -0.301231,0.514792 0.323419,5.274464 0.924296,5.569003 1.983576,1.287918 4.299661,1.376294 6.631307,1.439207 0.903089,2.048092 1.081569,4.160041 1.327261,6.266068 0,0 4.592233,2.389617 6.892132,1.799522 2.006869,-0.514914 3.548959,-2.438927 4.515104,-4.271746 1.677987,-3.183218 1.689518,-10.662187 1.689518,-10.662187 l -6.624384,-6.1585 z"
         id="path11727"
         sodipodi:nodetypes="sscccssccs" />
    </clipPath>
    <clipPath
       clipPathUnits="userSpaceOnUse"
       id="clipPath13273">
      <path
         style="fill:#eaedf2;fill-opacity:1;stroke:none;stroke-width:0.264583px;stroke-linecap:butt;stroke-linejoin:miter;stroke-opacity:1"
         d="m 36.270713,41.889804 c -0.08537,-0.185113 1.815023,-0.578884 2.12548,0.310502 0.311936,0.893622 -2.379665,3.533077 -1.673169,3.983421 -0.58238,-1.759132 -0.871699,-3.563646 -0.452311,-4.293923 z"
         id="path13275"
         sodipodi:nodetypes="cscc" />
    </clipPath>
    <clipPath
       clipPathUnits="userSpaceOnUse"
       id="clipPath20465">
      <ellipse
         style="fill:#282c33;fill-opacity:1;stroke:none;stroke-width:0.348697;stroke-opacity:1"
         id="ellipse20467"
         cx="52.057934"
         cy="21.891678"
         rx="0.40860248"
         ry="0.67131484" />
    </clipPath>
    <clipPath
       clipPathUnits="userSpaceOnUse"
       id="clipPath39933">
      <path
         style="fill:none;stroke:#eaedf2;stroke-width:0.264583px;stroke-linecap:butt;stroke-linejoin:miter;stroke-opacity:1"
         d="m 49.921636,36.052281 c -6.952747,0.738841 -12.400814,3.701132 -13.650923,5.837523 -0.301231,0.514792 0.323419,5.274464 0.924296,5.569003 1.983576,1.287918 4.299661,1.376294 6.631307,1.439207 0.903089,2.048092 1.081569,4.160041 1.327261,6.266068 0,0 4.592233,2.389617 6.892132,1.799522 2.006869,-0.514914 3.548959,-2.438927 4.515104,-4.271746 1.677987,-3.183218 1.689518,-10.662187 1.689518,-10.662187 l -6.624384,-6.1585 z"
         id="path39935"
         sodipodi:nodetypes="sscccssccs" />
    </clipPath>
    <clipPath
       clipPathUnits="userSpaceOnUse"
       id="clipPath11259-3">
      <path
         style="fill:#eaedf2;fill-opacity:1;stroke:none;stroke-width:0.264583px;stroke-linecap:butt;stroke-linejoin:miter;stroke-opacity:1"
         d="m 50.40289,37.344421 c 0.664395,-1.657688 0.863734,-2.391084 1.54642,-2.198777 1.613414,0.48532 1.572488,4.504783 -0.19391,4.374118 -1.101511,-0.811781 -1.524897,-1.745234 -1.35251,-2.175341 z"
         id="path11261-6"
         sodipodi:nodetypes="sccs" />
    </clipPath>
  </defs>
  <g
     inkscape:label="Camada 1"
     inkscape:groupmode="layer"
     id="layer1"
     transform="translate(-19.797015,-22.550448)">
    <rect
       style="fill:#282c33;fill-opacity:1;stroke:#ccd4e0;stroke-width:3.2;stroke-miterlimit:4;stroke-dasharray:none;stroke-opacity:0.933333"
       id="rect155558"
       width="111.84853"
       height="45.201244"
       x="21.397015"
       y="24.150448"
       ry="1.8006165" />
    <g
       id="g164881"
       transform="translate(0,-3.9840091)">
      <g
         id="g166346"
         transform="translate(6.70496,-0.89915874)">
        <g
           id="g166374"
           transform="translate(1.2998004)">
          <g
             id="g161479"
             transform="translate(-2.8442044,5.3189849)">
            <g
               id="g161455">
              <g
                 id="g161432">
                <path
                   style="fill:#ff8080;stroke:#eaedf2;stroke-width:0;stroke-linecap:butt;stroke-linejoin:miter;stroke-miterlimit:4;stroke-dasharray:none;stroke-opacity:1"
                   d="m 49.921636,36.052281 c -6.952747,0.73884 -12.400815,3.701132 -13.650923,5.837523 -0.301231,0.514793 0.323419,5.274465 0.924295,5.569003 1.983576,1.287917 4.299663,1.376293 6.631308,1.439206 0.90309,2.048092 1.081568,4.160042 1.327261,6.266069 0,0 4.592232,2.389616 6.892131,1.799521 2.006871,-0.514912 3.54896,-2.438926 4.515104,-4.271746 1.677987,-3.183218 1.689518,-10.662186 1.689518,-10.662186 l -6.624384,-6.1585 z"
                   id="path108015"
                   sodipodi:nodetypes="sscccssccs" />
                <path
                   style="fill:#282c33;fill-opacity:1;stroke:#ccd4e0;stroke-width:0.9;stroke-linecap:butt;stroke-linejoin:miter;stroke-miterlimit:4;stroke-dasharray:none;stroke-opacity:1"
                   d="m 50.450803,36.052281 c -6.952747,0.73884 -12.400815,3.701132 -13.650923,5.837523 -0.301231,0.514793 0.323419,5.274465 0.924295,5.569003 1.983576,1.287917 4.299663,1.376293 6.631308,1.439206 0.90309,2.048092 1.081568,4.160042 1.327261,6.266069 0,0 4.592232,2.389616 6.892131,1.799521 2.006871,-0.514912 3.54896,-2.438926 4.515104,-4.271746 1.677987,-3.183218 1.689518,-10.662186 1.689518,-10.662186 l -6.624384,-6.1585 z"
                   id="path121613"
                   sodipodi:nodetypes="sscccssccs" />
                <path
                   style="fill:#282c33;fill-opacity:1;stroke:#eaedf2;stroke-width:0.9;stroke-linecap:butt;stroke-linejoin:miter;stroke-miterlimit:4;stroke-dasharray:none;stroke-opacity:1"
                   d="m 49.921636,36.052281 c -6.952747,0.73884 -12.400815,3.701132 -13.650923,5.837523 -0.301231,0.514793 0.323419,5.274465 0.924295,5.569003 1.983576,1.287917 4.299663,1.376293 6.631308,1.439206 0.90309,2.048092 1.081568,4.160042 1.327261,6.266069 0,0 4.592232,2.389616 6.892131,1.799521 2.006871,-0.514912 3.54896,-2.438926 4.515104,-4.271746 1.677987,-3.183218 1.689518,-10.662186 1.689518,-10.662186 l -6.624384,-6.1585 z"
                   id="path119030"
                   sodipodi:nodetypes="sscccssccs" />
                <path
                   style="fill:#282c33;fill-opacity:1;stroke:#eaedf2;stroke-width:0;stroke-linecap:butt;stroke-linejoin:miter;stroke-miterlimit:4;stroke-dasharray:none;stroke-opacity:1"
                   d="m 49.921636,36.052281 c -6.952747,0.73884 -12.400815,3.701132 -13.650923,5.837523 -0.301231,0.514793 0.323419,5.274465 0.924295,5.569003 1.983576,1.287917 4.299663,1.376293 6.631308,1.439206 0.90309,2.048092 1.081568,4.160042 1.327261,6.266069 0,0 4.592232,2.389616 6.892131,1.799521 2.006871,-0.514912 3.54896,-2.438926 4.515104,-4.271746 1.677987,-3.183218 1.689518,-10.662186 1.689518,-10.662186 l -6.624384,-6.1585 z"
                   id="path1002"
                   sodipodi:nodetypes="sscccssccs" />
                <path
                   style="fill:#3a404a;fill-opacity:1;stroke:none;stroke-width:0.264583px;stroke-linecap:butt;stroke-linejoin:miter;stroke-opacity:1"
                   d="m 37.230157,42.420809 c -0.605584,-1.208886 9.06035,-6.760603 14.233719,-6.259691 1.159411,0.11226 0.04441,0.06029 2.186104,1.660625 2.141696,1.600332 -1.750825,-4.961644 -1.750825,-4.961644 l -18.697146,4.166102 2.128838,5.639814 z"
                   id="path9161"
                   sodipodi:nodetypes="csscccc"
                   clip-path="url(#clipPath11725)" />
                <path
                   style="fill:#f3762c;fill-opacity:1;stroke:none;stroke-width:0.264583px;stroke-linecap:butt;stroke-linejoin:miter;stroke-opacity:1"
                   d="m 36.270713,41.889804 c -0.08537,-0.185114 1.815023,-0.578884 2.12548,0.310502 0.311936,0.893622 -2.379666,3.533076 -1.673169,3.98342 -0.582381,-1.759131 -0.8717,-3.563645 -0.452311,-4.293922 z"
                   id="path3950"
                   sodipodi:nodetypes="cscc" />
                <path
                   style="fill:#1b1d22;fill-opacity:1;stroke:none;stroke-width:0.264583px;stroke-linecap:butt;stroke-linejoin:miter;stroke-opacity:1"
                   d="m 38.355557,47.238967 c 0,0 0.598795,0.644947 1.456321,0.842866 3.187599,0.735707 4.014438,0.81618 4.014438,0.81618 L 40.913708,48.737019 38.07924,48.05998 37.195008,47.458807 38.539904,47.186728 Z"
                   id="path26731"
                   clip-path="url(#clipPath39933)"
                   sodipodi:nodetypes="cscccccc" />
                <path
                   style="fill:none;stroke:#eaedf2;stroke-width:0.264583px;stroke-linecap:butt;stroke-linejoin:miter;stroke-opacity:1"
                   d="m 36.964774,47.130409 c 0,0 0.06376,0.516031 1.116583,0.203037 1.052822,-0.312998 1.525638,-1.36294 1.525638,-1.36294"
                   id="path5998" />
                <path
                   style="fill:#06bec7;fill-opacity:1;stroke:#06bec7;stroke-width:0.264583px;stroke-linecap:butt;stroke-linejoin:miter;stroke-opacity:1"
                   d="m 45.884049,39.167845 c 0,0 0.535116,0.536523 0.865579,0.497398 0.346197,-0.04099 0.925658,-0.345967 0.76004,-0.718421 -0.123025,-0.276667 -0.906542,-0.05744 -0.906542,-0.05744 z"
                   id="path6903"
                   sodipodi:nodetypes="csscc" />
                <path
                   style="fill:none;stroke:#06bec7;stroke-width:0.264583px;stroke-linecap:butt;stroke-linejoin:miter;stroke-opacity:1"
                   d="m 45.146819,39.619174 c 0,0 0.886689,-0.844498 1.456307,-0.969339 0.552363,-0.121059 1.675881,0.263176 1.675881,0.263176"
                   id="path6788"
                   sodipodi:nodetypes="csc" />
                <path
                   style="fill:#eaedf2;fill-opacity:1;stroke:none;stroke-width:0.264583px;stroke-linecap:butt;stroke-linejoin:miter;stroke-opacity:1"
                   d="m 50.402889,37.344421 c 0.664397,-1.657687 0.863735,-2.391085 1.546421,-2.198777 1.613414,0.485319 1.572488,4.504782 -0.193911,4.374118 -1.101511,-0.81178 -1.524896,-1.745234 -1.35251,-2.175341 z"
                   id="path2192"
                   sodipodi:nodetypes="sccs" />
                <path
                   style="fill:#d35d19;fill-opacity:1;stroke:none;stroke-width:0.342009px;stroke-linecap:butt;stroke-linejoin:miter;stroke-opacity:1"
                   d="m 39.196386,46.40886 c 0.12175,0.216884 -2.588485,0.678234 -3.031242,-0.363791 -0.444866,-1.046987 3.393749,-4.13943 2.386181,-4.667063 0.83056,2.061037 1.243171,4.175246 0.645061,5.030854 z"
                   id="path11980"
                   sodipodi:nodetypes="cscc"
                   clip-path="url(#clipPath13273)" />
                <path
                   style="fill:none;stroke:#eaedf2;stroke-width:0.264583px;stroke-linecap:butt;stroke-linejoin:miter;stroke-opacity:1"
                   d="m 49.921636,36.052281 c -6.952747,0.73884 -12.400814,3.701132 -13.650923,5.837523 -0.09623,0.164453 -0.175756,0.738032 -0.11397,1.484923 0.131624,1.591127 0.629342,3.883634 1.038265,4.08408 1.983576,1.287917 4.299663,1.376293 6.631308,1.439206 0.90309,2.048092 1.081568,4.160042 1.327261,6.266069 0,0 4.592232,2.389616 6.892131,1.799521 2.006871,-0.514912 3.54896,-2.438926 4.515104,-4.271746 1.677987,-3.183218 1.689518,-10.662186 1.689518,-10.662186 l -6.624384,-6.1585 z"
                   id="path50144"
                   sodipodi:nodetypes="ssscccssccs" />
                <ellipse
                   style="fill:#3a404a;fill-opacity:1;stroke:none;stroke-width:0.348696;stroke-opacity:1"
                   id="path13862"
                   cx="52.057934"
                   cy="21.891678"
                   rx="0.40860248"
                   ry="0.67131484"
                   transform="rotate(26.402292)" />
                <ellipse
                   style="fill:#282c33;fill-opacity:1;stroke:none;stroke-width:0.348696;stroke-opacity:1"
                   id="ellipse16247"
                   cx="51.912926"
                   cy="21.82082"
                   rx="0.40860248"
                   ry="0.67131484"
                   transform="rotate(26.402292)"
                   clip-path="url(#clipPath20465)" />
                <path
                   style="fill:#bac4d4;fill-opacity:1;stroke:none;stroke-width:0.264583px;stroke-linecap:butt;stroke-linejoin:miter;stroke-opacity:1"
                   d="m 52.400477,35.237756 c 0,0 0.958223,0.683074 0.06743,2.746 -0.359815,0.833271 -1.631016,1.843604 -1.513153,1.798499 l -1.414918,-2.018472 1.658883,-3.091688 z"
                   id="path10753"
                   sodipodi:nodetypes="cscccc"
                   clip-path="url(#clipPath11259-3)" />
              </g>
            </g>
          </g>
          <g
             id="g166299"
             transform="matrix(0.74761215,0,0,0.74761215,16.660774,15.151522)">
            <text
               xml:space="preserve"
               style="font-size:10.5833px;line-height:1.25;font-family:sans-serif;letter-spacing:0px;fill:#c074d6;fill-opacity:1;stroke-width:0.264583"
               x="63.594318"
               y="51.560921"
               id="text60091"
               transform="translate(-0.24460365,0.43581709)"><tspan
                 sodipodi:role="line"
                 id="tspan60089"
                 style="font-style:normal;font-variant:normal;font-weight:bold;font-stretch:normal;font-family:Poppins;-inkscape-font-specification:'Poppins Bold';fill:#c074d6;fill-opacity:1;stroke-width:0.264583"
                 x="63.594318"
                 y="51.560921"><tspan
                   style="fill:#06a8aa;fill-opacity:1"
                   id="tspan107273"> </tspan><tspan
                   id="tspan226163"
                   style="fill:#06bec7;fill-opacity:1">i</tspan><tspan
                   style="fill:#bac4d4;fill-opacity:1"
                   id="tspan81208">Capivara</tspan></tspan></text>
            <rect
               style="fill:#f3762c;fill-opacity:1;stroke:none;stroke-width:4.10554;stroke-miterlimit:4;stroke-dasharray:none;stroke-opacity:0.933333"
               id="rect166462"
               width="50.474045"
               height="6.0011401"
               x="66.039825"
               y="53.874279"
               ry="0" />
            <rect
               style="fill:#f3762c;fill-opacity:1;stroke:none;stroke-width:2.76514;stroke-miterlimit:4;stroke-dasharray:none;stroke-opacity:0.933333"
               id="rect167346"
               width="21.254662"
               height="6.4645486"
               x="119.00512"
               y="57.575077"
               ry="0"
               transform="matrix(1,0,-0.35356579,0.93540966,0,0)" />
            <text
               xml:space="preserve"
               style="font-size:4.69312px;line-height:1.25;font-family:sans-serif;letter-spacing:0px;fill:#1a1d22;fill-opacity:1;stroke-width:0.117328"
               x="67.792122"
               y="58.270546"
               id="text162601"><tspan
                 sodipodi:role="line"
                 id="tspan162599"
                 style="font-style:normal;font-variant:normal;font-weight:300;font-stretch:normal;font-family:Poppins;-inkscape-font-specification:'Poppins Light';fill:#1a1d22;fill-opacity:1;stroke-width:0.117328"
                 x="67.792122"
                 y="58.270546">Linux para iniciantes</tspan></text>
          </g>
        </g>
      </g>
    </g>
  </g>
</svg>
